<svg width="33" height="32" viewBox="0 0 33 32" fill="none" xmlns="http://www.w3.org/2000/svg">
<path d="M6.60203 9.29977H22.3126C22.8548 9.29977 23.2945 9.73937 23.2945 10.2817V25.9922C23.2945 26.5345 22.8548 26.9741 22.3126 26.9741H6.60203C6.05974 26.9741 5.62012 26.5345 5.62012 25.9922V10.2817C5.62012 9.73937 6.05974 9.29977 6.60203 9.29977Z" fill="white" fill-opacity="0.1"/>
<path d="M27.2222 4.39026H19.8579C19.3156 4.39026 18.876 4.82987 18.876 5.37217C18.876 5.91446 19.3156 6.35407 19.8579 6.35407H26.2403V12.7365C26.2403 13.2788 26.6799 13.7184 27.2222 13.7184C27.7645 13.7184 28.2041 13.2788 28.2041 12.7365V5.37217C28.2041 4.82987 27.7645 4.39026 27.2222 4.39026Z" fill="white"/>
<path d="M27.9159 6.06685L27.9162 6.06648C28.1004 5.88234 28.2038 5.63258 28.2038 5.37217C28.2038 5.11175 28.1004 4.862 27.9162 4.67785L27.9157 4.67729L27.9077 4.66948L27.9072 4.66892C27.7238 4.49025 27.4779 4.39026 27.2219 4.39026C26.9615 4.39026 26.7117 4.49371 26.5276 4.67785L26.5272 4.67822L17.6908 13.5147L17.6904 13.515C17.5063 13.6992 17.4028 13.9489 17.4028 14.2093C17.4028 14.4698 17.5063 14.7195 17.6904 14.9037C17.8746 15.0878 18.1243 15.1912 18.3847 15.1912C18.6452 15.1912 18.8949 15.0878 19.0791 14.9037L19.0794 14.9033L27.9159 6.06685Z" fill="white"/>
<path d="M6.602 10.2817H14.4573C14.9996 10.2817 15.4392 9.84207 15.4392 9.29978C15.4392 8.75749 14.9996 8.31787 14.4573 8.31787H6.602C5.78856 8.31787 5.21337 8.89306 5.21337 8.89306C4.63818 9.46825 4.63818 10.2817 4.63818 10.2817V25.9922C4.63818 26.8057 5.21337 27.3808 5.21337 27.3808C5.78856 27.956 6.602 27.956 6.602 27.956H22.3125C23.126 27.956 23.7012 27.3808 23.7012 27.3808C24.2763 26.8057 24.2763 25.9922 24.2763 25.9922V18.137C24.2763 17.5947 23.8367 17.155 23.2944 17.155C22.7521 17.155 22.3125 17.5947 22.3125 18.137V25.9922H6.602V10.2817Z" fill="white"/>
</svg>
