<svg width="33" height="33" viewBox="0 0 33 33" fill="none" xmlns="http://www.w3.org/2000/svg">
<path d="M10.2979 25.3156L6.25762 28.705C6.11455 28.8235 5.94077 28.8989 5.75645 28.9226C5.57224 28.9463 5.38503 28.9172 5.21666 28.8388C5.04816 28.7604 4.90545 28.6358 4.80495 28.4795C4.70457 28.3232 4.65036 28.1417 4.64893 27.9559V8.45454C4.64893 8.19397 4.75242 7.94411 4.93663 7.75987C5.12096 7.5756 5.37076 7.47211 5.63136 7.47211H27.245C27.5056 7.47211 27.7554 7.5756 27.9397 7.75987C28.1239 7.94411 28.2274 8.19397 28.2274 8.45454V24.1736C28.2274 24.4341 28.1239 24.684 27.9397 24.8682C27.7554 25.0525 27.5056 25.156 27.245 25.156H10.7523L10.2979 25.3156Z" fill="white" fill-opacity="0.1"/>
<path fill-rule="evenodd" clip-rule="evenodd" d="M6.88402 29.4619L10.8536 26.1438L10.8544 26.1431L10.8599 26.1384H27.245C27.245 26.1384 28.0589 26.1384 28.6344 25.5629C28.6344 25.5629 29.2099 24.9874 29.2099 24.1735V8.45453C29.2099 8.45453 29.2099 7.64065 28.6344 7.06515C28.6344 7.06515 28.0589 6.48965 27.245 6.48965H5.63138C5.63138 6.48965 4.8175 6.48965 4.242 7.06515C4.242 7.06515 3.6665 7.64065 3.6665 8.45453V27.9559C3.6665 27.9559 3.67104 28.5325 3.97867 29.0109C3.97867 29.0109 4.2863 29.4893 4.80192 29.7294C4.80192 29.7294 5.31754 29.9695 5.88168 29.897C5.88168 29.897 6.44582 29.8245 6.88402 29.4619ZM10.8503 24.1735C10.8503 24.1735 10.1327 24.1737 9.58877 24.6401L5.63138 27.9481V8.45453H27.245V24.1735H10.8503Z" fill="white"/>
</svg>
