<svg width="330" height="45" viewBox="0 0 330 45" fill="none" xmlns="http://www.w3.org/2000/svg">
<rect x="291" y="14" width="38.4" height="24" rx="4.8" fill="#FAE69E"/>
<path d="M296.968 31V20.5273H300.507C301.329 20.5273 302 20.6756 302.522 20.9722C303.047 21.2653 303.435 21.6625 303.688 22.1636C303.94 22.6648 304.066 23.2239 304.066 23.8409C304.066 24.458 303.94 25.0188 303.688 25.5233C303.439 26.0278 303.054 26.4301 302.532 26.7301C302.01 27.0267 301.342 27.175 300.527 27.175H297.991V26.05H300.487C301.049 26.05 301.501 25.9528 301.842 25.7585C302.183 25.5642 302.43 25.3017 302.583 24.971C302.74 24.6369 302.818 24.2602 302.818 23.8409C302.818 23.4216 302.74 23.0466 302.583 22.7159C302.43 22.3852 302.181 22.1261 301.837 21.9386C301.492 21.7477 301.035 21.6523 300.466 21.6523H298.237V31H296.968ZM307.152 20.5273V31H305.945V20.5273H307.152ZM314.313 27.7886V23.1455H315.519V31H314.313V29.6705H314.231C314.047 30.0693 313.76 30.4085 313.372 30.6881C312.983 30.9642 312.492 31.1023 311.899 31.1023C311.408 31.1023 310.972 30.9949 310.59 30.7801C310.208 30.5619 309.908 30.2347 309.69 29.7983C309.472 29.3585 309.363 28.8045 309.363 28.1364V23.1455H310.569V28.0545C310.569 28.6273 310.73 29.0841 311.05 29.425C311.374 29.7659 311.786 29.9364 312.288 29.9364C312.588 29.9364 312.893 29.8597 313.203 29.7063C313.517 29.5528 313.779 29.3176 313.99 29.0006C314.205 28.6835 314.313 28.2795 314.313 27.7886ZM323.293 24.9045L322.209 25.2114C322.141 25.0307 322.041 24.8551 321.908 24.6847C321.778 24.5108 321.601 24.3676 321.376 24.2551C321.151 24.1426 320.863 24.0864 320.512 24.0864C320.031 24.0864 319.63 24.1972 319.31 24.4188C318.993 24.6369 318.834 24.9148 318.834 25.2523C318.834 25.5523 318.943 25.7892 319.162 25.9631C319.38 26.1369 319.721 26.2818 320.184 26.3977L321.35 26.6841C322.052 26.8545 322.576 27.1153 322.92 27.4665C323.264 27.8142 323.437 28.2625 323.437 28.8114C323.437 29.2614 323.307 29.6636 323.048 30.0182C322.792 30.3727 322.434 30.6523 321.974 30.8568C321.514 31.0614 320.979 31.1636 320.368 31.1636C319.567 31.1636 318.904 30.9898 318.379 30.642C317.854 30.2943 317.522 29.7864 317.382 29.1182L318.527 28.8318C318.637 29.2545 318.843 29.5716 319.146 29.783C319.453 29.9943 319.854 30.1 320.348 30.1C320.91 30.1 321.357 29.9807 321.688 29.742C322.022 29.5 322.189 29.2102 322.189 28.8727C322.189 28.6 322.093 28.3716 321.902 28.1875C321.712 28 321.418 27.8602 321.023 27.7682L319.714 27.4614C318.995 27.2909 318.466 27.0267 318.129 26.6688C317.795 26.3074 317.627 25.8557 317.627 25.3136C317.627 24.8705 317.752 24.4784 318.001 24.1375C318.253 23.7966 318.596 23.529 319.029 23.3347C319.465 23.1403 319.959 23.0432 320.512 23.0432C321.289 23.0432 321.899 23.2136 322.342 23.5545C322.789 23.8955 323.106 24.3455 323.293 24.9045Z" fill="#1C1C1C"/>
<path d="M74.946 38.3735L66.1309 7.13922H72.2161L77.8437 30.0922H78.1335L84.1424 7.13922H89.6786L95.7028 30.1074H95.9773L101.605 7.13922H107.69L98.875 38.3735H93.2931L87.0402 16.4577H86.7961L80.5279 38.3735H74.946ZM109.902 38.3735V14.9478H115.255V18.8521H115.499C115.926 17.4998 116.658 16.4577 117.695 15.7256C118.742 14.9834 119.937 14.6123 121.279 14.6123C121.584 14.6123 121.925 14.6275 122.301 14.658C122.687 14.6784 123.007 14.7139 123.262 14.7648V19.8434C123.028 19.7621 122.657 19.6909 122.148 19.6299C121.65 19.5587 121.167 19.5231 120.699 19.5231C119.693 19.5231 118.788 19.7417 117.985 20.1789C117.192 20.606 116.566 21.2008 116.109 21.9633C115.651 22.7259 115.423 23.6054 115.423 24.6018V38.3735H109.902ZM126.929 38.3735V14.9478H132.45V38.3735H126.929ZM129.705 11.6231C128.831 11.6231 128.078 11.3333 127.448 10.7537C126.818 10.164 126.502 9.45739 126.502 8.63383C126.502 7.8001 126.818 7.09347 127.448 6.51392C128.078 5.92421 128.831 5.62936 129.705 5.62936C130.59 5.62936 131.342 5.92421 131.962 6.51392C132.593 7.09347 132.908 7.8001 132.908 8.63383C132.908 9.45739 132.593 10.164 131.962 10.7537C131.342 11.3333 130.59 11.6231 129.705 11.6231ZM149.825 14.9478V19.2181H136.359V14.9478H149.825ZM139.683 9.33538H145.204V31.3275C145.204 32.0697 145.316 32.6391 145.54 33.0356C145.774 33.422 146.079 33.6864 146.455 33.8287C146.831 33.971 147.248 34.0422 147.705 34.0422C148.051 34.0422 148.366 34.0168 148.651 33.966C148.946 33.9151 149.169 33.8694 149.322 33.8287L150.252 38.1448C149.957 38.2464 149.535 38.3583 148.986 38.4803C148.448 38.6023 147.787 38.6735 147.004 38.6938C145.621 38.7345 144.376 38.526 143.267 38.0685C142.159 37.6008 141.28 36.8789 140.629 35.9029C139.988 34.9268 139.673 33.7067 139.683 32.2426V9.33538ZM164.562 38.8311C162.213 38.8311 160.185 38.343 158.476 37.367C156.778 36.3807 155.472 34.9878 154.557 33.1882C153.642 31.3783 153.184 29.2483 153.184 26.7979C153.184 24.3882 153.642 22.2734 154.557 20.4535C155.482 18.6233 156.773 17.1999 158.431 16.1831C160.088 15.1562 162.035 14.6428 164.272 14.6428C165.716 14.6428 167.078 14.8766 168.359 15.3443C169.65 15.8019 170.789 16.5136 171.775 17.4795C172.772 18.4454 173.555 19.6756 174.124 21.1703C174.693 22.6547 174.978 24.4238 174.978 26.4777V28.1705H155.777V24.4493H169.686C169.676 23.3918 169.447 22.4514 169 21.6278C168.552 20.7941 167.927 20.1383 167.124 19.6604C166.331 19.1825 165.406 18.9436 164.348 18.9436C163.22 18.9436 162.228 19.2181 161.374 19.7672C160.52 20.306 159.854 21.0177 159.376 21.9023C158.909 22.7767 158.67 23.7375 158.659 24.7848V28.0333C158.659 29.3957 158.909 30.565 159.407 31.541C159.905 32.5069 160.601 33.2492 161.496 33.7677C162.391 34.2761 163.438 34.5303 164.638 34.5303C165.441 34.5303 166.168 34.4184 166.819 34.1947C167.47 33.9609 168.034 33.6203 168.512 33.1729C168.99 32.7255 169.351 32.1714 169.595 31.5105L174.749 32.0901C174.424 33.4525 173.804 34.6421 172.889 35.6588C171.984 36.6654 170.825 37.4483 169.412 38.0075C167.998 38.5565 166.382 38.8311 164.562 38.8311ZM179.893 38.3735V7.13922H200.207V11.8823H185.551V20.362H199.155V25.1051H185.551V33.6304H200.329V38.3735H179.893ZM214.429 38.7853C212.589 38.7853 210.942 38.3125 209.488 37.367C208.034 36.4214 206.885 35.0488 206.041 33.2492C205.197 31.4495 204.775 29.2635 204.775 26.6912C204.775 24.0883 205.202 21.8921 206.056 20.1027C206.92 18.303 208.085 16.9457 209.549 16.0306C211.013 15.1054 212.645 14.6428 214.444 14.6428C215.817 14.6428 216.945 14.8766 217.83 15.3443C218.715 15.8019 219.416 16.356 219.935 17.0067C220.453 17.6472 220.855 18.2522 221.14 18.8216H221.368V14.9478H226.904V38.3735H221.475V34.6828H221.14C220.855 35.2521 220.443 35.8571 219.904 36.4976C219.365 37.128 218.654 37.6669 217.769 38.1143C216.884 38.5616 215.771 38.7853 214.429 38.7853ZM215.969 34.2557C217.139 34.2557 218.135 33.9405 218.959 33.3102C219.782 32.6696 220.407 31.78 220.834 30.6412C221.262 29.5025 221.475 28.1756 221.475 26.6607C221.475 25.1457 221.262 23.829 220.834 22.7106C220.418 21.5922 219.797 20.7229 218.974 20.1027C218.16 19.4825 217.159 19.1724 215.969 19.1724C214.739 19.1724 213.712 19.4926 212.889 20.1332C212.065 20.7737 211.445 21.6583 211.028 22.7869C210.611 23.9155 210.403 25.2067 210.403 26.6607C210.403 28.1248 210.611 29.4313 211.028 30.5802C211.455 31.719 212.08 32.6188 212.904 33.2797C213.738 33.9304 214.759 34.2557 215.969 34.2557ZM251.302 21.1398L246.27 21.6888C246.127 21.1804 245.878 20.7026 245.522 20.2552C245.177 19.8078 244.709 19.4469 244.119 19.1724C243.529 18.8978 242.808 18.7606 241.954 18.7606C240.805 18.7606 239.839 19.0097 239.056 19.5079C238.283 20.0061 237.902 20.6517 237.912 21.4448C237.902 22.126 238.151 22.6801 238.659 23.1072C239.178 23.5342 240.032 23.885 241.221 24.1595L245.217 25.0135C247.434 25.4914 249.081 26.2489 250.159 27.286C251.247 28.323 251.796 29.6804 251.806 31.358C251.796 32.8323 251.363 34.1337 250.509 35.2623C249.665 36.3807 248.491 37.2551 246.986 37.8855C245.482 38.5159 243.753 38.8311 241.801 38.8311C238.934 38.8311 236.626 38.2312 234.877 37.0314C233.128 35.8215 232.086 34.1388 231.751 31.9833L237.134 31.4648C237.378 32.5222 237.897 33.3203 238.69 33.8592C239.483 34.3981 240.515 34.6675 241.786 34.6675C243.097 34.6675 244.15 34.3981 244.943 33.8592C245.746 33.3203 246.148 32.6544 246.148 31.8613C246.148 31.1903 245.888 30.6361 245.37 30.1989C244.861 29.7617 244.068 29.4262 242.991 29.1924L238.995 28.3535C236.748 27.8858 235.085 27.0979 234.008 25.9896C232.93 24.8712 232.396 23.4579 232.406 21.7498C232.396 20.306 232.788 19.0554 233.581 17.998C234.384 16.9304 235.497 16.1069 236.921 15.5273C238.354 14.9376 240.006 14.6428 241.877 14.6428C244.622 14.6428 246.783 15.2274 248.359 16.3967C249.945 17.5659 250.926 19.1469 251.302 21.1398ZM266.729 38.8311C264.38 38.8311 262.352 38.343 260.644 37.367C258.946 36.3807 257.639 34.9878 256.724 33.1882C255.809 31.3783 255.352 29.2483 255.352 26.7979C255.352 24.3882 255.809 22.2734 256.724 20.4535C257.649 18.6233 258.941 17.1999 260.598 16.1831C262.255 15.1562 264.202 14.6428 266.439 14.6428C267.883 14.6428 269.245 14.8766 270.526 15.3443C271.818 15.8019 272.957 16.5136 273.943 17.4795C274.939 18.4454 275.722 19.6756 276.291 21.1703C276.861 22.6547 277.145 24.4238 277.145 26.4777V28.1705H257.944V24.4493H271.853C271.843 23.3918 271.614 22.4514 271.167 21.6278C270.72 20.7941 270.094 20.1383 269.291 19.6604C268.498 19.1825 267.573 18.9436 266.515 18.9436C265.387 18.9436 264.396 19.2181 263.541 19.7672C262.687 20.306 262.021 21.0177 261.544 21.9023C261.076 22.7767 260.837 23.7375 260.827 24.7848V28.0333C260.827 29.3957 261.076 30.565 261.574 31.541C262.072 32.5069 262.769 33.2492 263.663 33.7677C264.558 34.2761 265.605 34.5303 266.805 34.5303C267.608 34.5303 268.335 34.4184 268.986 34.1947C269.637 33.9609 270.201 33.6203 270.679 33.1729C271.157 32.7255 271.518 32.1714 271.762 31.5105L276.917 32.0901C276.591 33.4525 275.971 34.6421 275.056 35.6588C274.151 36.6654 272.992 37.4483 271.579 38.0075C270.166 38.5565 268.549 38.8311 266.729 38.8311Z" fill="white"/>
<path d="M43.7222 4.76887L39.4741 0.520795C38.7654 -0.18797 37.6142 -0.18797 36.8197 0.611083L34.7836 2.64709L41.6004 9.46387L43.6364 7.42787C44.431 6.62881 44.431 5.47763 43.7222 4.76887ZM38.5893 35.6566C38.5893 38.0447 36.6436 39.9046 34.3412 39.9046H8.67221C6.28408 39.9046 4.42414 37.9589 4.42414 35.6566V9.99206C4.42414 7.60393 6.36985 5.74398 8.67221 5.74398H25.6645L29.9126 1.49591H7.16891C3.18718 1.40562 0 4.59281 0 8.57453V37.1599C0 41.0558 3.18718 44.243 7.16891 44.243H35.7543C39.736 44.243 42.9232 41.0558 42.9232 37.0741V14.2401L38.5848 18.5785V35.6566H38.5893ZM40.535 10.4345L33.7182 3.61769L18.6762 18.5785L25.493 25.3953L40.535 10.4345ZM14.9563 29.1107L24.5178 26.3659L17.7011 19.5491L14.9563 29.1107Z" fill="white"/>
</svg>
