<svg width="33" height="33" viewBox="0 0 33 33" fill="none" xmlns="http://www.w3.org/2000/svg">
<path d="M24.2976 12.5083C24.2976 16.8489 20.7787 20.3678 16.4381 20.3678C12.0975 20.3678 8.57861 16.8489 8.57861 12.5083C8.57861 8.16766 12.0975 4.64877 16.4381 4.64877C20.7787 4.64877 24.2976 8.16766 24.2976 12.5083Z" fill="white" fill-opacity="0.1"/>
<path fill-rule="evenodd" clip-rule="evenodd" d="M16.4381 3.66632C16.4381 3.66632 18.2364 3.66632 19.8801 4.36157C19.8801 4.36157 21.4671 5.03278 22.6903 6.25607C22.6903 6.25607 23.9136 7.47935 24.5848 9.06628C24.5848 9.06628 25.2801 10.71 25.2801 12.5083C25.2801 12.5083 25.2801 14.3065 24.5848 15.9502C24.5848 15.9502 23.9136 17.5372 22.6903 18.7605C22.6903 18.7605 21.467 19.9837 19.8801 20.655C19.8801 20.655 18.2364 21.3502 16.4381 21.3502C16.4381 21.3502 14.6399 21.3502 12.9962 20.655C12.9962 20.655 11.4092 19.9837 10.1859 18.7605C10.1859 18.7605 8.96265 17.5372 8.29144 15.9502C8.29144 15.9502 7.59619 14.3065 7.59619 12.5083C7.59619 12.5083 7.59619 10.71 8.29144 9.06628C8.29144 9.06628 8.96265 7.47935 10.1859 6.25607C10.1859 6.25607 11.4092 5.03278 12.9962 4.36157C12.9962 4.36157 14.6399 3.66632 16.4381 3.66632ZM16.4381 5.6312C16.4381 5.6312 13.5896 5.6312 11.5753 7.64544C11.5753 7.64544 9.56107 9.65969 9.56107 12.5083C9.56107 12.5083 9.56107 15.3568 11.5753 17.3711C11.5753 17.3711 13.5896 19.3853 16.4381 19.3853C16.4381 19.3853 19.2867 19.3853 21.301 17.3711C21.301 17.3711 23.3152 15.3568 23.3152 12.5083C23.3152 12.5083 23.3152 9.65969 21.301 7.64544C21.301 7.64544 19.2867 5.6312 16.4381 5.6312Z" fill="white"/>
<path d="M22.8243 23.0605C25.7882 24.7719 27.4992 27.736 27.4992 27.736C27.6294 27.9616 27.844 28.1263 28.0957 28.1938C28.1786 28.216 28.2641 28.2273 28.35 28.2273C28.3603 28.2273 28.3706 28.2271 28.3809 28.2268C28.5428 28.2217 28.7009 28.1767 28.8412 28.0957C29.1452 27.9202 29.3325 27.5959 29.3325 27.2448C29.3325 27.2297 29.3321 27.2145 29.3314 27.1994C29.3241 27.0425 29.2794 26.8897 29.2009 26.7537C27.2267 23.3336 23.8068 21.3589 23.8068 21.3589C20.387 19.3842 16.438 19.3842 16.438 19.3842C12.4889 19.3842 9.06908 21.3589 9.06908 21.3589C5.6495 23.3334 3.67534 26.7532 3.67534 26.7532L3.67503 26.7537C3.58884 26.903 3.54346 27.0724 3.54346 27.2448L3.54362 27.2626C3.54506 27.3426 3.55626 27.422 3.57696 27.4992C3.64442 27.7509 3.80909 27.9655 4.03475 28.0957C4.18409 28.1819 4.35347 28.2273 4.5259 28.2273C4.54408 28.2273 4.56226 28.2268 4.58041 28.2258C4.91151 28.2074 5.21098 28.0232 5.37676 27.736C7.08772 24.7719 10.0516 23.0605 10.0516 23.0605C13.0155 21.3491 16.438 21.3491 16.438 21.3491C19.8604 21.3491 22.8243 23.0605 22.8243 23.0605Z" fill="white"/>
</svg>
