<svg width="33" height="32" viewBox="0 0 33 32" fill="none" xmlns="http://www.w3.org/2000/svg">
<path d="M25.8333 16.0152L21.3729 20.4756L21.3726 20.4759C21.1884 20.6601 21.085 20.9098 21.085 21.1702C21.085 21.186 21.0853 21.2017 21.0861 21.2174C21.0978 21.4612 21.1999 21.6919 21.3726 21.8646C21.5567 22.0487 21.8065 22.1521 22.0669 22.1521C22.3273 22.1521 22.577 22.0487 22.7612 21.8646L22.7616 21.8642L27.9162 16.7095C28.1003 16.5254 28.2038 16.2756 28.2038 16.0152C28.2038 15.7548 28.1003 15.5051 27.9162 15.3209L22.7613 10.166C22.577 9.98175 22.3273 9.8783 22.0669 9.8783C21.8065 9.8783 21.5567 9.98175 21.3726 10.1659C21.1884 10.35 21.085 10.5998 21.085 10.8602C21.085 11.1206 21.1884 11.3704 21.3726 11.5545L25.8333 16.0152Z" fill="white"/>
<path d="M13.4756 16.9971H27.2223C27.7646 16.9971 28.2042 16.5575 28.2042 16.0152C28.2042 15.4729 27.7646 15.0333 27.2223 15.0333H13.4756C12.9333 15.0333 12.4937 15.4729 12.4937 16.0152C12.4937 16.5575 12.9333 16.9971 13.4756 16.9971Z" fill="white"/>
<path d="M6.602 6.19615H13.4754C14.0176 6.19615 14.4573 5.75653 14.4573 5.21424C14.4573 4.67195 14.0176 4.23233 13.4754 4.23233H6.602C5.78856 4.23233 5.21337 4.80752 5.21337 4.80752C4.63818 5.38271 4.63818 6.19615 4.63818 6.19615V25.8343C4.63818 26.6477 5.21337 27.2229 5.21337 27.2229C5.78856 27.7981 6.602 27.7981 6.602 27.7981H13.4754C14.0176 27.7981 14.4573 27.3585 14.4573 26.8162C14.4573 26.2739 14.0176 25.8343 13.4754 25.8343H6.602V6.19615Z" fill="white"/>
</svg>
